<svg width="166" height="73" viewBox="0 0 166 73" fill="none" xmlns="http://www.w3.org/2000/svg">
<path d="M31.9091 11.0909V46H27.8182L8.79545 18.5909H8.45455V46H4.22727V11.0909H8.31818L27.4091 38.5682H27.75V11.0909H31.9091ZM50.4588 46.5455C48.0952 46.5455 46.0213 45.983 44.2372 44.858C42.4645 43.733 41.0781 42.1591 40.0781 40.1364C39.0895 38.1136 38.5952 35.75 38.5952 33.0455C38.5952 30.3182 39.0895 27.9375 40.0781 25.9034C41.0781 23.8693 42.4645 22.2898 44.2372 21.1648C46.0213 20.0398 48.0952 19.4773 50.4588 19.4773C52.8224 19.4773 54.8906 20.0398 56.6634 21.1648C58.4474 22.2898 59.8338 23.8693 60.8224 25.9034C61.8224 27.9375 62.3224 30.3182 62.3224 33.0455C62.3224 35.75 61.8224 38.1136 60.8224 40.1364C59.8338 42.1591 58.4474 43.733 56.6634 44.858C54.8906 45.983 52.8224 46.5455 50.4588 46.5455ZM50.4588 42.9318C52.2543 42.9318 53.7315 42.4716 54.8906 41.5511C56.0497 40.6307 56.9077 39.4205 57.4645 37.9205C58.0213 36.4205 58.2997 34.7955 58.2997 33.0455C58.2997 31.2955 58.0213 29.6648 57.4645 28.1534C56.9077 26.642 56.0497 25.4205 54.8906 24.4886C53.7315 23.5568 52.2543 23.0909 50.4588 23.0909C48.6634 23.0909 47.1861 23.5568 46.027 24.4886C44.8679 25.4205 44.0099 26.642 43.4531 28.1534C42.8963 29.6648 42.6179 31.2955 42.6179 33.0455C42.6179 34.7955 42.8963 36.4205 43.4531 37.9205C44.0099 39.4205 44.8679 40.6307 46.027 41.5511C47.1861 42.4716 48.6634 42.9318 50.4588 42.9318ZM79.8494 19.8182V23.2273H66.2812V19.8182H79.8494ZM70.2358 13.5455H74.2585V38.5C74.2585 39.6364 74.4233 40.4886 74.7528 41.0568C75.0938 41.6136 75.5256 41.9886 76.0483 42.1818C76.5824 42.3636 77.1449 42.4545 77.7358 42.4545C78.179 42.4545 78.5426 42.4318 78.8267 42.3864C79.1108 42.3295 79.3381 42.2841 79.5085 42.25L80.3267 45.8636C80.054 45.9659 79.6733 46.0682 79.1847 46.1705C78.696 46.2841 78.0767 46.3409 77.3267 46.3409C76.1903 46.3409 75.0767 46.0966 73.9858 45.608C72.9063 45.1193 72.0085 44.375 71.2926 43.375C70.5881 42.375 70.2358 41.1136 70.2358 39.5909V13.5455ZM93.6051 46.6136C91.946 46.6136 90.4403 46.3011 89.0881 45.6761C87.7358 45.0398 86.6619 44.125 85.8665 42.9318C85.071 41.7273 84.6733 40.2727 84.6733 38.5682C84.6733 37.0682 84.9688 35.8523 85.5597 34.9205C86.1506 33.9773 86.9403 33.2386 87.929 32.7045C88.9176 32.1705 90.0085 31.7727 91.2017 31.5114C92.4063 31.2386 93.6165 31.0227 94.8324 30.8636C96.4233 30.6591 97.7131 30.5057 98.7017 30.4034C99.7017 30.2898 100.429 30.1023 100.884 29.8409C101.349 29.5795 101.582 29.125 101.582 28.4773V28.3409C101.582 26.6591 101.122 25.3523 100.202 24.4205C99.2926 23.4886 97.9119 23.0227 96.0597 23.0227C94.1392 23.0227 92.6335 23.4432 91.5426 24.2841C90.4517 25.125 89.6847 26.0227 89.2415 26.9773L85.4233 25.6136C86.1051 24.0227 87.0142 22.7841 88.1506 21.8977C89.2983 21 90.5483 20.375 91.9006 20.0227C93.2642 19.6591 94.6051 19.4773 95.9233 19.4773C96.7642 19.4773 97.7301 19.5795 98.821 19.7841C99.9233 19.9773 100.986 20.3807 102.009 20.9943C103.043 21.608 103.901 22.5341 104.582 23.7727C105.264 25.0114 105.605 26.6705 105.605 28.75V46H101.582V42.4545H101.378C101.105 43.0227 100.651 43.6307 100.014 44.2784C99.3778 44.9261 98.5313 45.4773 97.4744 45.9318C96.4176 46.3864 95.1278 46.6136 93.6051 46.6136ZM94.2188 43C95.8097 43 97.1506 42.6875 98.2415 42.0625C99.3438 41.4375 100.173 40.6307 100.73 39.642C101.298 38.6534 101.582 37.6136 101.582 36.5227V32.8409C101.412 33.0455 101.037 33.233 100.457 33.4034C99.8892 33.5625 99.2301 33.7045 98.4801 33.8295C97.7415 33.9432 97.0199 34.0455 96.3153 34.1364C95.6222 34.2159 95.0597 34.2841 94.6278 34.3409C93.5824 34.4773 92.6051 34.6989 91.696 35.0057C90.7983 35.3011 90.071 35.75 89.5142 36.3523C88.9688 36.9432 88.696 37.75 88.696 38.7727C88.696 40.1705 89.2131 41.2273 90.2472 41.9432C91.2926 42.6477 92.6165 43 94.2188 43ZM131.493 25.6818L127.879 26.7045C127.652 26.1023 127.317 25.517 126.874 24.9489C126.442 24.3693 125.851 23.892 125.101 23.517C124.351 23.142 123.391 22.9545 122.22 22.9545C120.618 22.9545 119.283 23.3239 118.214 24.0625C117.158 24.7898 116.629 25.7159 116.629 26.8409C116.629 27.8409 116.993 28.6307 117.72 29.2102C118.447 29.7898 119.584 30.2727 121.129 30.6591L125.016 31.6136C127.357 32.1818 129.101 33.0511 130.249 34.2216C131.396 35.3807 131.97 36.875 131.97 38.7045C131.97 40.2045 131.538 41.5455 130.675 42.7273C129.822 43.9091 128.629 44.8409 127.095 45.5227C125.561 46.2045 123.777 46.5455 121.743 46.5455C119.072 46.5455 116.862 45.9659 115.112 44.8068C113.362 43.6477 112.254 41.9545 111.788 39.7273L115.607 38.7727C115.97 40.1818 116.658 41.2386 117.669 41.9432C118.692 42.6477 120.027 43 121.675 43C123.55 43 125.038 42.6023 126.141 41.8068C127.254 41 127.811 40.0341 127.811 38.9091C127.811 38 127.493 37.2386 126.857 36.625C126.22 36 125.243 35.5341 123.925 35.2273L119.561 34.2045C117.163 33.6364 115.402 32.7557 114.277 31.5625C113.163 30.358 112.607 28.8523 112.607 27.0455C112.607 25.5682 113.021 24.2614 113.851 23.125C114.692 21.9886 115.834 21.0966 117.277 20.4489C118.732 19.8011 120.379 19.4773 122.22 19.4773C124.811 19.4773 126.845 20.0455 128.322 21.1818C129.811 22.3182 130.868 23.8182 131.493 25.6818Z" fill="url(#paint0_linear_7111_266)"/>
<path d="M157.406 31.125H150.875V24.5938C150.875 24.2658 150.609 24 150.281 24H146.719C146.391 24 146.125 24.2658 146.125 24.5938V31.125H139.594C139.266 31.125 139 31.3908 139 31.7188V35.2813C139 35.6092 139.266 35.875 139.594 35.875H146.125V42.4063C146.125 42.7342 146.391 43 146.719 43H150.281C150.609 43 150.875 42.7342 150.875 42.4063V35.875H157.406C157.734 35.875 158 35.6092 158 35.2813V31.7188C158 31.3908 157.734 31.125 157.406 31.125Z" fill="url(#paint1_linear_7111_266)"/>
<defs>
<linearGradient id="paint0_linear_7111_266" x1="83" y1="0" x2="83" y2="73" gradientUnits="userSpaceOnUse">
<stop stop-color="#5B84BE"/>
<stop offset="1" stop-color="#313944"/>
</linearGradient>
<linearGradient id="paint1_linear_7111_266" x1="148.5" y1="24" x2="148.5" y2="43" gradientUnits="userSpaceOnUse">
<stop stop-color="#324F55"/>
<stop offset="1" stop-color="#7CAAB4"/>
</linearGradient>
</defs>
</svg>
